<mxfile host="app.diagrams.net" modified="2023-06-04T17:20:21.897Z" agent="Mozilla/5.0 (Windows NT 10.0; Win64; x64) AppleWebKit/537.36 (KHTML, like Gecko) Chrome/112.0.0.0 Safari/537.36 OPR/98.0.0.0" etag="0StTWCM8J4CI_cQXzNru" version="21.3.7" type="github">
  <diagram name="Page-1" id="-7sIL15yCkAY9pRD7SNF">
    <mxGraphModel dx="891" dy="466" grid="1" gridSize="10" guides="1" tooltips="1" connect="1" arrows="1" fold="1" page="1" pageScale="1" pageWidth="827" pageHeight="1169" math="0" shadow="0">
      <root>
        <mxCell id="0" />
        <mxCell id="1" parent="0" />
        <mxCell id="HJqD1dHEU3A7mw8FQYVe-13" value="" style="whiteSpace=wrap;html=1;aspect=fixed;" vertex="1" parent="1">
          <mxGeometry x="260" y="270" width="100" height="100" as="geometry" />
        </mxCell>
        <mxCell id="HJqD1dHEU3A7mw8FQYVe-18" style="edgeStyle=orthogonalEdgeStyle;rounded=0;orthogonalLoop=1;jettySize=auto;html=1;exitX=0.5;exitY=1;exitDx=0;exitDy=0;entryX=-0.001;entryY=0.082;entryDx=0;entryDy=0;entryPerimeter=0;" edge="1" parent="1" source="HJqD1dHEU3A7mw8FQYVe-1" target="HJqD1dHEU3A7mw8FQYVe-11">
          <mxGeometry relative="1" as="geometry" />
        </mxCell>
        <mxCell id="HJqD1dHEU3A7mw8FQYVe-20" value="Wahwah" style="edgeLabel;html=1;align=center;verticalAlign=middle;resizable=0;points=[];" vertex="1" connectable="0" parent="HJqD1dHEU3A7mw8FQYVe-18">
          <mxGeometry x="0.0526" relative="1" as="geometry">
            <mxPoint x="9" y="-2" as="offset" />
          </mxGeometry>
        </mxCell>
        <mxCell id="HJqD1dHEU3A7mw8FQYVe-19" style="edgeStyle=orthogonalEdgeStyle;rounded=0;orthogonalLoop=1;jettySize=auto;html=1;exitX=0.5;exitY=1;exitDx=0;exitDy=0;entryX=0;entryY=0.5;entryDx=0;entryDy=0;" edge="1" parent="1" source="HJqD1dHEU3A7mw8FQYVe-1" target="HJqD1dHEU3A7mw8FQYVe-12">
          <mxGeometry relative="1" as="geometry" />
        </mxCell>
        <mxCell id="HJqD1dHEU3A7mw8FQYVe-21" value="Phaser" style="edgeLabel;html=1;align=center;verticalAlign=middle;resizable=0;points=[];" vertex="1" connectable="0" parent="HJqD1dHEU3A7mw8FQYVe-19">
          <mxGeometry x="0.3646" y="1" relative="1" as="geometry">
            <mxPoint x="6" y="1" as="offset" />
          </mxGeometry>
        </mxCell>
        <mxCell id="HJqD1dHEU3A7mw8FQYVe-1" value="BT4" style="shape=ellipse;html=1;fontSize=16;align=center;" vertex="1" parent="1">
          <mxGeometry x="160" y="210" width="60" height="60" as="geometry" />
        </mxCell>
        <mxCell id="HJqD1dHEU3A7mw8FQYVe-2" value="BT5" style="shape=ellipse;html=1;fontSize=16;align=center;" vertex="1" parent="1">
          <mxGeometry x="280" y="210" width="60" height="60" as="geometry" />
        </mxCell>
        <mxCell id="HJqD1dHEU3A7mw8FQYVe-16" style="edgeStyle=orthogonalEdgeStyle;rounded=0;orthogonalLoop=1;jettySize=auto;html=1;exitX=0.5;exitY=1;exitDx=0;exitDy=0;entryX=0.998;entryY=0.712;entryDx=0;entryDy=0;entryPerimeter=0;" edge="1" parent="1" source="HJqD1dHEU3A7mw8FQYVe-3" target="HJqD1dHEU3A7mw8FQYVe-10">
          <mxGeometry relative="1" as="geometry" />
        </mxCell>
        <mxCell id="HJqD1dHEU3A7mw8FQYVe-22" value="++" style="edgeLabel;html=1;align=center;verticalAlign=middle;resizable=0;points=[];fontSize=18;" vertex="1" connectable="0" parent="HJqD1dHEU3A7mw8FQYVe-16">
          <mxGeometry x="0.0983" relative="1" as="geometry">
            <mxPoint x="-20" y="-14" as="offset" />
          </mxGeometry>
        </mxCell>
        <mxCell id="HJqD1dHEU3A7mw8FQYVe-3" value="BT6" style="shape=ellipse;html=1;fontSize=16;align=center;" vertex="1" parent="1">
          <mxGeometry x="400" y="210" width="60" height="60" as="geometry" />
        </mxCell>
        <mxCell id="HJqD1dHEU3A7mw8FQYVe-17" style="edgeStyle=orthogonalEdgeStyle;rounded=0;orthogonalLoop=1;jettySize=auto;html=1;exitX=0.5;exitY=1;exitDx=0;exitDy=0;entryX=1;entryY=0.75;entryDx=0;entryDy=0;" edge="1" parent="1" source="HJqD1dHEU3A7mw8FQYVe-4" target="HJqD1dHEU3A7mw8FQYVe-13">
          <mxGeometry relative="1" as="geometry" />
        </mxCell>
        <mxCell id="HJqD1dHEU3A7mw8FQYVe-23" value="--" style="edgeLabel;html=1;align=center;verticalAlign=middle;resizable=0;points=[];fontSize=18;" vertex="1" connectable="0" parent="HJqD1dHEU3A7mw8FQYVe-17">
          <mxGeometry x="0.515" y="-2" relative="1" as="geometry">
            <mxPoint x="-45" y="-11" as="offset" />
          </mxGeometry>
        </mxCell>
        <mxCell id="HJqD1dHEU3A7mw8FQYVe-4" value="BT7" style="shape=ellipse;html=1;fontSize=16;align=center;" vertex="1" parent="1">
          <mxGeometry x="520" y="210" width="60" height="60" as="geometry" />
        </mxCell>
        <mxCell id="HJqD1dHEU3A7mw8FQYVe-5" value="Wahwah/&lt;br style=&quot;font-size: 18px;&quot;&gt;Phaser" style="text;html=1;strokeColor=none;fillColor=none;align=center;verticalAlign=middle;whiteSpace=wrap;rounded=0;fontSize=18;" vertex="1" parent="1">
          <mxGeometry x="160" y="150" width="60" height="30" as="geometry" />
        </mxCell>
        <mxCell id="HJqD1dHEU3A7mw8FQYVe-6" value="Modes" style="text;html=1;strokeColor=none;fillColor=none;align=center;verticalAlign=middle;whiteSpace=wrap;rounded=0;fontSize=18;" vertex="1" parent="1">
          <mxGeometry x="280" y="150" width="60" height="30" as="geometry" />
        </mxCell>
        <mxCell id="HJqD1dHEU3A7mw8FQYVe-7" value="Inkrementer" style="text;html=1;strokeColor=none;fillColor=none;align=center;verticalAlign=middle;whiteSpace=wrap;rounded=0;fontSize=18;" vertex="1" parent="1">
          <mxGeometry x="400" y="150" width="60" height="30" as="geometry" />
        </mxCell>
        <mxCell id="HJqD1dHEU3A7mw8FQYVe-8" value="Dekrementer" style="text;html=1;strokeColor=none;fillColor=none;align=center;verticalAlign=middle;whiteSpace=wrap;rounded=0;fontSize=18;" vertex="1" parent="1">
          <mxGeometry x="520" y="150" width="60" height="30" as="geometry" />
        </mxCell>
        <mxCell id="HJqD1dHEU3A7mw8FQYVe-12" value="Depth of effect" style="text;strokeColor=none;fillColor=none;align=left;verticalAlign=middle;spacingLeft=4;spacingRight=4;overflow=hidden;points=[[0,0.5],[1,0.5]];portConstraint=eastwest;rotatable=0;whiteSpace=wrap;html=1;" vertex="1" parent="1">
          <mxGeometry x="260" y="330" width="100" height="30" as="geometry" />
        </mxCell>
        <mxCell id="HJqD1dHEU3A7mw8FQYVe-11" value="Rate of effect" style="text;strokeColor=none;fillColor=none;align=left;verticalAlign=middle;spacingLeft=4;spacingRight=4;overflow=hidden;points=[[0,0.5],[1,0.5]];portConstraint=eastwest;rotatable=0;whiteSpace=wrap;html=1;" vertex="1" parent="1">
          <mxGeometry x="260" y="300" width="100" height="30" as="geometry" />
        </mxCell>
        <mxCell id="HJqD1dHEU3A7mw8FQYVe-10" value="Number of filters" style="text;strokeColor=none;fillColor=none;align=left;verticalAlign=middle;spacingLeft=4;spacingRight=4;overflow=hidden;points=[[0,0.5],[1,0.5]];portConstraint=eastwest;rotatable=0;whiteSpace=wrap;html=1;" vertex="1" parent="1">
          <mxGeometry x="260" y="270" width="100" height="30" as="geometry" />
        </mxCell>
      </root>
    </mxGraphModel>
  </diagram>
</mxfile>
